<svg width="96" height="96" viewBox="0 0 96 96" fill="none" xmlns="http://www.w3.org/2000/svg">
<rect x="0.5" y="0.5" width="95" height="95" rx="24.18" fill="white"/>
<rect x="0.5" y="0.5" width="95" height="95" rx="24.18" stroke="#77BDE0"/>
<path opacity="0.4" d="M69.0915 34.8332V50.7129H20.1156V34.8332C20.1156 28.9279 24.9277 24.1158 30.8329 24.1158H58.3741C64.2794 24.1158 69.0915 28.9279 69.0915 34.8332Z" fill="url(#paint0_linear_4707_9205)" stroke="#1774A3" stroke-width="0.351247"/>
<path d="M19.9399 50.9131V51.4071C19.9399 57.4341 24.8307 62.3001 30.8329 62.3001H40.318C41.6765 62.3001 42.788 63.4116 42.788 64.7701V67.1661C42.788 68.5246 41.6765 69.6362 40.318 69.6362H34.3404C33.3277 69.6362 32.4879 70.476 32.4879 71.4887C32.4879 72.5014 33.303 73.3413 34.3404 73.3413H54.9654C55.9782 73.3413 56.818 72.5014 56.818 71.4887C56.818 70.476 55.9782 69.6362 54.9654 69.6362H48.9879C47.6293 69.6362 46.5178 68.5246 46.5178 67.1661V64.7701C46.5178 63.4116 47.6293 62.3001 48.9879 62.3001H58.3988C64.4258 62.3001 69.2918 57.4094 69.2918 51.4071V50.9131H19.9399Z" fill="url(#paint1_linear_4707_9205)"/>
<path d="M78.2676 44.1648H65.2009C60.9277 44.1648 59.3716 45.7209 59.3716 50.0435V69.1371C59.3716 73.4844 60.903 75.0159 65.2009 75.0159H78.2676C82.5408 75.0159 84.0969 73.4597 84.0969 69.1371V50.0435C84.0969 45.6962 82.5655 44.1648 78.2676 44.1648ZM71.7466 70.8909C70.2399 70.8909 69.0295 69.6805 69.0295 68.1738C69.0295 66.6671 70.2399 65.4567 71.7466 65.4567C73.2533 65.4567 74.4637 66.6671 74.4637 68.1738C74.4637 69.6805 73.2533 70.8909 71.7466 70.8909Z" fill="url(#paint2_linear_4707_9205)"/>
<path opacity="0.4" d="M74.4542 68.1741C74.4542 69.6808 73.2438 70.8912 71.7371 70.8912C70.2304 70.8912 69.02 69.6808 69.02 68.1741C69.02 66.6674 70.2304 65.457 71.7371 65.457C73.2438 65.457 74.4542 66.6921 74.4542 68.1741Z" fill="white"/>
<defs>
<linearGradient id="paint0_linear_4707_9205" x1="44.1177" y1="25.0193" x2="44.1177" y2="68.0193" gradientUnits="userSpaceOnUse">
<stop stop-color="#61BAE8"/>
<stop offset="1" stop-color="#D2E8F3"/>
</linearGradient>
<linearGradient id="paint1_linear_4707_9205" x1="51.8808" y1="49.3263" x2="-11.1987" y2="40.8559" gradientUnits="userSpaceOnUse">
<stop stop-color="#1D91CC"/>
<stop offset="1" stop-color="#D0DFE9"/>
</linearGradient>
<linearGradient id="paint2_linear_4707_9205" x1="74.7146" y1="63.0245" x2="50.6789" y2="34.3108" gradientUnits="userSpaceOnUse">
<stop stop-color="#1D91CC"/>
<stop offset="1" stop-color="#D0DFE9"/>
</linearGradient>
</defs>
</svg>
