<svg width="96" height="96" viewBox="0 0 96 96" fill="none" xmlns="http://www.w3.org/2000/svg">
<rect x="0.5" y="0.5" width="95" height="95" rx="24.18" fill="white"/>
<rect x="0.5" y="0.5" width="95" height="95" rx="24.18" stroke="#77BDE0"/>
<g opacity="0.4">
<path d="M19.4869 67.5045C18.2227 67.5045 17.1744 66.4562 17.1744 65.192V47.617C17.0202 39.2612 20.1344 31.3678 25.9311 25.4478C31.7277 19.5587 39.4977 16.3212 47.8536 16.3212C64.9352 16.3212 78.8411 30.227 78.8411 47.3087V64.8837C78.8411 66.1478 77.7927 67.1962 76.5286 67.1962C75.2644 67.1962 74.2161 66.1478 74.2161 64.8837V47.3087C74.2161 32.7862 62.4069 20.9462 47.8536 20.9462C40.7311 20.9462 34.1327 23.6903 29.2302 28.6853C24.2969 33.7112 21.6761 40.402 21.7994 47.5553V65.1612C21.7994 66.4562 20.7819 67.5045 19.4869 67.5045Z" fill="#292D32"/>
<path d="M19.4869 67.5045C18.2227 67.5045 17.1744 66.4562 17.1744 65.192V47.617C17.0202 39.2612 20.1344 31.3678 25.9311 25.4478C31.7277 19.5587 39.4977 16.3212 47.8536 16.3212C64.9352 16.3212 78.8411 30.227 78.8411 47.3087V64.8837C78.8411 66.1478 77.7927 67.1962 76.5286 67.1962C75.2644 67.1962 74.2161 66.1478 74.2161 64.8837V47.3087C74.2161 32.7862 62.4069 20.9462 47.8536 20.9462C40.7311 20.9462 34.1327 23.6903 29.2302 28.6853C24.2969 33.7112 21.6761 40.402 21.7994 47.5553V65.1612C21.7994 66.4562 20.7819 67.5045 19.4869 67.5045Z" fill="url(#paint0_linear_4707_9222)"/>
</g>
<path d="M29.3173 48.3877H28.9164C22.4414 48.3877 17.1689 53.6602 17.1689 60.1352V65.9319C17.1689 72.4069 22.4414 77.6794 28.9164 77.6794H29.3173C35.7923 77.6794 41.0648 72.4069 41.0648 65.9319V60.1352C41.0648 53.6602 35.7923 48.3877 29.3173 48.3877Z" fill="#292D32"/>
<path d="M29.3173 48.3877H28.9164C22.4414 48.3877 17.1689 53.6602 17.1689 60.1352V65.9319C17.1689 72.4069 22.4414 77.6794 28.9164 77.6794H29.3173C35.7923 77.6794 41.0648 72.4069 41.0648 65.9319V60.1352C41.0648 53.6602 35.7923 48.3877 29.3173 48.3877Z" fill="url(#paint1_linear_4707_9222)"/>
<path d="M67.0761 48.3877H66.6752C60.2002 48.3877 54.9277 53.6602 54.9277 60.1352V65.9319C54.9277 72.4069 60.2002 77.6794 66.6752 77.6794H67.0761C73.5511 77.6794 78.8236 72.4069 78.8236 65.9319V60.1352C78.8236 53.6602 73.5511 48.3877 67.0761 48.3877Z" fill="#292D32"/>
<path d="M67.0761 48.3877H66.6752C60.2002 48.3877 54.9277 53.6602 54.9277 60.1352V65.9319C54.9277 72.4069 60.2002 77.6794 66.6752 77.6794H67.0761C73.5511 77.6794 78.8236 72.4069 78.8236 65.9319V60.1352C78.8236 53.6602 73.5511 48.3877 67.0761 48.3877Z" fill="url(#paint2_linear_4707_9222)"/>
<rect x="71.8359" y="69.8008" width="6.16667" height="25.2931" rx="3.08333" transform="rotate(63.783 71.8359 69.8008)" fill="#1D91CC"/>
<defs>
<linearGradient id="paint0_linear_4707_9222" x1="47.3976" y1="18.3707" x2="47.3976" y2="100.041" gradientUnits="userSpaceOnUse">
<stop offset="0.402183" stop-color="#059DEA"/>
<stop offset="1" stop-color="#D2E8F3"/>
</linearGradient>
<linearGradient id="paint1_linear_4707_9222" x1="31.9973" y1="66.2941" x2="9.25103" y2="38.6345" gradientUnits="userSpaceOnUse">
<stop stop-color="#1D91CC"/>
<stop offset="1" stop-color="#D0DFE9"/>
</linearGradient>
<linearGradient id="paint2_linear_4707_9222" x1="69.7561" y1="66.2941" x2="47.0098" y2="38.6345" gradientUnits="userSpaceOnUse">
<stop stop-color="#1D91CC"/>
<stop offset="1" stop-color="#D0DFE9"/>
</linearGradient>
</defs>
</svg>
