<svg width="96" height="96" viewBox="0 0 96 96" fill="none" xmlns="http://www.w3.org/2000/svg">
<rect x="0.5" y="0.5" width="95" height="95" rx="24.18" fill="white"/>
<rect x="0.5" y="0.5" width="95" height="95" rx="24.18" stroke="#77BDE0"/>
<path d="M78.2918 76.6667H19.7085C18.4102 76.6667 17.3335 75.5901 17.3335 74.2917C17.3335 72.9934 18.4102 71.9167 19.7085 71.9167H78.2918C79.5902 71.9167 80.6668 72.9934 80.6668 74.2917C80.6668 75.5901 79.5902 76.6667 78.2918 76.6667Z" fill="url(#paint0_linear_4707_9289)"/>
<g opacity="0.4">
<path d="M76.2106 50.3832L53.3156 73.2782C48.8189 77.7749 41.5672 77.7749 37.1022 73.3099L22.5039 58.7115L61.6439 19.5715L76.2422 34.1699C80.7072 38.6349 80.7072 45.8865 76.2106 50.3832Z" fill="#292D32"/>
<path d="M76.2106 50.3832L53.3156 73.2782C48.8189 77.7749 41.5672 77.7749 37.1022 73.3099L22.5039 58.7115L61.6439 19.5715L76.2422 34.1699C80.7072 38.6349 80.7072 45.8865 76.2106 50.3832Z" fill="url(#paint1_linear_4707_9289)"/>
</g>
<path d="M61.6428 19.5714L22.4711 58.7114L19.5894 55.8298C15.1244 51.3648 15.1244 44.1131 19.6211 39.6164L42.5161 16.7214C47.0128 12.2248 54.2644 12.2248 58.7294 16.6898L61.6428 19.5714Z" fill="#292D32"/>
<path d="M61.6428 19.5714L22.4711 58.7114L19.5894 55.8298C15.1244 51.3648 15.1244 44.1131 19.6211 39.6164L42.5161 16.7214C47.0128 12.2248 54.2644 12.2248 58.7294 16.6898L61.6428 19.5714Z" fill="url(#paint2_linear_4707_9289)"/>
<path d="M51.8195 62.733L47.5445 67.008C46.6578 67.8946 45.2328 67.8946 44.3462 67.008C43.4595 66.1213 43.4595 64.6963 44.3462 63.8096L48.6212 59.5346C49.5078 58.648 50.9328 58.648 51.8195 59.5346C52.7062 60.4213 52.7062 61.8463 51.8195 62.733Z" fill="#1D91CC"/>
<path d="M65.6864 48.8633L57.168 57.3817C56.2814 58.2683 54.8564 58.2683 53.9697 57.3817C53.083 56.495 53.083 55.07 53.9697 54.1833L62.488 45.665C63.3747 44.7783 64.7997 44.7783 65.6864 45.665C66.5414 46.5517 66.5414 47.9767 65.6864 48.8633Z" fill="#1D91CC"/>
<defs>
<linearGradient id="paint0_linear_4707_9289" x1="56.6344" y1="74.8205" x2="56.257" y2="67.3208" gradientUnits="userSpaceOnUse">
<stop stop-color="#1D91CC"/>
<stop offset="1" stop-color="#D0DFE9"/>
</linearGradient>
<linearGradient id="paint1_linear_4707_9289" x1="50.4832" y1="21.8573" x2="50.4832" y2="112.942" gradientUnits="userSpaceOnUse">
<stop stop-color="#61BAE8"/>
<stop offset="1" stop-color="#D2E8F3"/>
</linearGradient>
<linearGradient id="paint2_linear_4707_9289" x1="44.416" y1="41.0781" x2="11.202" y2="-8.46486" gradientUnits="userSpaceOnUse">
<stop stop-color="#1D91CC"/>
<stop offset="1" stop-color="#D0DFE9"/>
</linearGradient>
</defs>
</svg>
