<svg width="264" height="24" viewBox="0 0 264 24" fill="none" xmlns="http://www.w3.org/2000/svg">
<path d="M21.0571 7.18066C21.0664 7.39186 21.0664 7.59346 21.0664 7.80466C21.0756 14.2079 16.3712 21.5999 7.76793 21.5999C5.23048 21.5999 2.73933 20.8415 0.600098 19.4207C0.970528 19.4687 1.34096 19.4879 1.71139 19.4879C3.81358 19.4879 5.86021 18.7583 7.51789 17.4047C5.51756 17.3663 3.75802 16.0127 3.14681 14.0351C3.85063 14.1791 4.57297 14.1503 5.25826 13.9487C3.08198 13.5071 1.51691 11.5199 1.50765 9.20626C1.50765 9.18706 1.50765 9.16786 1.50765 9.14866C2.15591 9.52306 2.88751 9.73426 3.62837 9.75346C1.58174 8.33266 0.942746 5.50065 2.18369 3.28304C4.5637 6.31665 8.06427 8.15026 11.8241 8.35186C11.4445 6.67185 11.9631 4.90545 13.1762 3.71505C15.0561 1.88144 18.0196 1.97744 19.7977 3.92625C20.8441 3.71505 21.8535 3.31184 22.7704 2.74544C22.4185 3.86865 21.6869 4.81905 20.7145 5.42385C21.6406 5.30865 22.5481 5.04945 23.4001 4.66545C22.7704 5.64465 21.9739 6.48945 21.0571 7.18066Z" fill="#1D9BF0"/>
<rect x="48" width="24" height="24" rx="12" fill="#1877F2"/>
<path d="M64.6711 15.4688L65.2031 12H61.875V9.75C61.875 8.80078 62.3391 7.875 63.8297 7.875H65.3438V4.92188C65.3438 4.92188 63.9703 4.6875 62.6578 4.6875C59.9156 4.6875 58.125 6.34922 58.125 9.35625V12H55.0781V15.4688H58.125V23.8547C58.7367 23.9508 59.3625 24 60 24C60.6375 24 61.2633 23.9508 61.875 23.8547V15.4688H64.6711Z" fill="white"/>
<path d="M119.933 7.05204C119.875 5.77422 119.669 4.89992 119.376 4.13611C119.069 3.34828 118.661 2.67574 117.993 2.01281C117.326 1.34988 116.659 0.931946 115.871 0.629304C115.108 0.331465 114.234 0.129704 112.957 0.0720577C111.675 0.0144115 111.267 0 108.012 0C104.752 0 104.344 0.0144115 103.067 0.0720577C101.79 0.129704 100.916 0.336269 100.153 0.629304C99.3609 0.936749 98.6888 1.34508 98.0263 2.01281C97.3637 2.68054 96.946 3.34828 96.6436 4.13611C96.3507 4.89992 96.1443 5.77422 96.0867 7.05204C96.0291 8.33467 96.0146 8.743 96.0146 12C96.0146 15.2618 96.0291 15.6701 96.0867 16.948C96.1443 18.2258 96.3507 19.1001 96.6436 19.8639C96.9508 20.6517 97.3589 21.3243 98.0263 21.9872C98.6888 22.6549 99.3609 23.0681 100.148 23.3707C100.912 23.6685 101.785 23.8703 103.062 23.9279C104.344 23.9856 104.752 24 108.007 24C111.267 24 111.675 23.9856 112.952 23.9279C114.229 23.8703 115.103 23.6637 115.867 23.3707C116.654 23.0633 117.326 22.6549 117.989 21.9872C118.651 21.3195 119.069 20.6517 119.371 19.8639C119.669 19.1001 119.871 18.2258 119.928 16.948C119.986 15.6653 120 15.257 120 12C120 8.743 119.991 8.32986 119.933 7.05204ZM117.777 16.8519C117.725 18.024 117.528 18.6629 117.365 19.0809C117.148 19.6381 116.884 20.0416 116.462 20.4644C116.039 20.8871 115.641 21.1417 115.079 21.3675C114.657 21.5308 114.018 21.7278 112.852 21.7806C111.589 21.8383 111.21 21.8527 108.003 21.8527C104.796 21.8527 104.416 21.8383 103.154 21.7806C101.982 21.7278 101.344 21.5308 100.926 21.3675C100.369 21.1513 99.9658 20.8871 99.5434 20.4644C99.1209 20.0416 98.8664 19.6429 98.6408 19.0809C98.4775 18.6581 98.2807 18.0192 98.2279 16.8519C98.1703 15.5885 98.1559 15.209 98.1559 12C98.1559 8.79103 98.1703 8.41153 98.2279 7.14812C98.2807 5.97598 98.4775 5.33707 98.6408 4.91914C98.8568 4.36189 99.1209 3.95837 99.5434 3.53563C99.9658 3.11289 100.364 2.85829 100.926 2.63251C101.349 2.46918 101.987 2.27222 103.154 2.21938C104.416 2.16173 104.796 2.14732 108.003 2.14732C111.21 2.14732 111.589 2.16173 112.852 2.21938C114.023 2.27222 114.662 2.46918 115.079 2.63251C115.636 2.84868 116.039 3.11289 116.462 3.53563C116.884 3.95837 117.139 4.35709 117.365 4.91914C117.528 5.34187 117.725 5.98079 117.777 7.14812C117.835 8.41153 117.849 8.79103 117.849 12C117.849 15.209 117.83 15.5885 117.777 16.8519Z" fill="url(#paint0_linear_4725_14932)"/>
<path d="M108.003 5.83179C104.594 5.83179 101.838 8.594 101.838 11.9999C101.838 15.4107 104.599 18.1681 108.003 18.1681C111.407 18.1681 114.167 15.401 114.167 11.9999C114.167 8.58919 111.411 5.83179 108.003 5.83179ZM108.003 16.0015C105.794 16.0015 104.004 14.2097 104.004 11.9999C104.004 9.79015 105.794 7.99832 108.003 7.99832C110.211 7.99832 112.002 9.79015 112.002 11.9999C112.002 14.2097 110.211 16.0015 108.003 16.0015Z" fill="url(#paint1_linear_4725_14932)"/>
<path d="M114.407 7.03294C115.203 7.03294 115.847 6.38771 115.847 5.59179C115.847 4.79586 115.203 4.15063 114.407 4.15063C113.612 4.15063 112.967 4.79586 112.967 5.59179C112.967 6.38771 113.612 7.03294 114.407 7.03294Z" fill="#BC30A0"/>
<path d="M96 12C96 15.2618 96.0144 15.6701 96.072 16.948C96.1296 18.2258 96.3361 19.1001 96.6289 19.8639C96.9362 20.6517 97.3443 21.3243 98.0116 21.9872C98.6741 22.6501 99.3463 23.0681 100.134 23.3707C100.897 23.6685 101.771 23.8703 103.048 23.9279C104.33 23.9856 104.738 24 107.993 24C111.253 24 111.661 23.9856 112.938 23.9279C114.215 23.8703 115.089 23.6637 115.852 23.3707C116.639 23.0633 117.311 22.6549 117.974 21.9872C118.637 21.3243 119.054 20.6517 119.357 19.8639C119.654 19.1001 119.856 18.2258 119.914 16.948C119.971 15.6653 119.986 15.257 119.986 12C119.986 8.73819 119.971 8.32986 119.914 7.05204C119.856 5.77422 119.65 4.89992 119.357 4.13611C119.049 3.34828 118.641 2.67574 117.974 2.01281C117.316 1.34508 116.644 0.931946 115.857 0.629304C115.093 0.331465 114.22 0.129704 112.943 0.0720577C111.661 0.0144115 111.253 0 107.998 0C104.738 0 104.33 0.0144115 103.053 0.0720577C101.776 0.129704 100.902 0.336269 100.138 0.629304C99.3511 0.936749 98.6789 1.34508 98.0164 2.01281C97.3539 2.68054 96.9362 3.34828 96.6337 4.13611C96.3361 4.89992 96.1296 5.77422 96.072 7.05204C96.0144 8.32986 96 8.73819 96 12ZM98.1652 12C98.1652 8.79584 98.1796 8.41153 98.2372 7.14812C98.2901 5.97598 98.4869 5.33707 98.6501 4.91914C98.8662 4.36189 99.1302 3.95837 99.5527 3.53563C99.9752 3.11289 100.374 2.85829 100.935 2.63251C101.358 2.46918 101.996 2.27222 103.163 2.21938C104.426 2.16173 104.805 2.14732 108.012 2.14732C111.219 2.14732 111.598 2.16173 112.861 2.21938C114.032 2.27222 114.671 2.46918 115.089 2.63251C115.646 2.84868 116.049 3.11289 116.471 3.53563C116.894 3.95837 117.148 4.35709 117.374 4.91914C117.537 5.34187 117.734 5.98079 117.787 7.14812C117.844 8.41153 117.859 8.79103 117.859 12C117.859 15.209 117.844 15.5885 117.787 16.8519C117.734 18.024 117.537 18.6629 117.374 19.0809C117.158 19.6381 116.894 20.0416 116.471 20.4644C116.049 20.8871 115.65 21.1417 115.089 21.3675C114.666 21.5308 114.028 21.7278 112.861 21.7806C111.598 21.8383 111.219 21.8527 108.012 21.8527C104.805 21.8527 104.426 21.8383 103.163 21.7806C101.992 21.7278 101.353 21.5308 100.935 21.3675C100.378 21.1513 99.9752 20.8871 99.5527 20.4644C99.1302 20.0416 98.8758 19.6429 98.6501 19.0809C98.4869 18.6581 98.2901 18.0192 98.2372 16.8519C98.1748 15.5885 98.1652 15.2042 98.1652 12Z" fill="url(#paint2_linear_4725_14932)"/>
<path d="M167.506 6.22941C167.229 5.20141 166.418 4.39087 165.39 4.1141C163.512 3.6001 156 3.6001 156 3.6001C156 3.6001 148.488 3.6001 146.61 4.09433C145.601 4.3711 144.771 5.20141 144.494 6.22941C144 8.10749 144 12.002 144 12.002C144 12.002 144 15.9164 144.494 17.7747C144.771 18.8027 145.582 19.6132 146.61 19.89C148.507 20.404 156 20.404 156 20.404C156 20.404 163.512 20.404 165.39 19.9097C166.418 19.633 167.229 18.8224 167.506 17.7944C168 15.9164 168 12.0218 168 12.0218C168 12.0218 168.02 8.10749 167.506 6.22941Z" fill="#FF0000"/>
<path d="M153.608 15.6001L159.855 12.0021L153.608 8.40405V15.6001Z" fill="white"/>
<g clip-path="url(#clip0_4725_14932)">
<path d="M192 3.20169C192 2.42947 192.27 1.79241 192.811 1.29049C193.351 0.788555 194.054 0.537598 194.919 0.537598C195.768 0.537598 196.456 0.784686 196.981 1.27891C197.521 1.78856 197.792 2.45264 197.792 3.27119C197.792 4.0125 197.529 4.63025 197.004 5.12447C196.463 5.63412 195.753 5.88895 194.873 5.88895H194.849C194 5.88895 193.313 5.63412 192.788 5.12447C192.263 4.61482 192 3.97388 192 3.20169ZM192.301 23.472V7.99706H197.444V23.472H192.301ZM200.293 23.472H205.436V14.831C205.436 14.2905 205.498 13.8735 205.622 13.5801C205.838 13.055 206.166 12.6109 206.606 12.248C207.046 11.8851 207.598 11.7036 208.263 11.7036C209.992 11.7036 210.857 12.8696 210.857 15.2017V23.472H216V14.5994C216 12.3137 215.459 10.5801 214.378 9.3986C213.297 8.21713 211.869 7.6264 210.093 7.6264C208.1 7.6264 206.548 8.48354 205.436 10.1978V10.2442H205.413L205.436 10.1978V7.99706H200.293C200.324 8.49126 200.34 10.0279 200.34 12.6071C200.34 15.1862 200.324 18.8079 200.293 23.472Z" fill="#0A66C2"/>
</g>
<rect x="240" width="24" height="24" rx="12" fill="url(#paint3_linear_4725_14932)"/>
<path fill-rule="evenodd" clip-rule="evenodd" d="M245.432 11.8734C248.93 10.3493 251.263 9.34452 252.43 8.85905C255.763 7.47294 256.455 7.23216 256.906 7.22421C257.006 7.22246 257.228 7.24706 257.371 7.36372C257.493 7.46223 257.526 7.5953 257.542 7.6887C257.558 7.78209 257.578 7.99485 257.562 8.1611C257.382 10.0586 256.6 14.6633 256.203 16.7885C256.035 17.6877 255.703 17.9892 255.383 18.0188C254.686 18.0829 254.157 17.5582 253.482 17.1158C252.426 16.4235 251.829 15.9925 250.804 15.3169C249.619 14.5362 250.387 14.1071 251.062 13.4058C251.239 13.2222 254.309 10.4295 254.369 10.1761C254.376 10.1444 254.383 10.0263 254.313 9.96397C254.243 9.9016 254.139 9.92293 254.064 9.93989C253.959 9.96393 252.271 11.0791 249.003 13.2855C248.524 13.6143 248.09 13.7746 247.701 13.7662C247.273 13.7569 246.449 13.5239 245.836 13.3247C245.085 13.0804 244.487 12.9513 244.539 12.5364C244.566 12.3203 244.864 12.0993 245.432 11.8734Z" fill="white"/>
<defs>
<linearGradient id="paint0_linear_4725_14932" x1="116.296" y1="1.8352" x2="98.9333" y2="23.1076" gradientUnits="userSpaceOnUse">
<stop stop-color="#AE3DAE"/>
<stop offset="0.0468721" stop-color="#B23BA6"/>
<stop offset="0.1216" stop-color="#BD368E"/>
<stop offset="0.2148" stop-color="#CE2E69"/>
<stop offset="0.3216" stop-color="#E62335"/>
<stop offset="0.418" stop-color="#FF1800"/>
</linearGradient>
<linearGradient id="paint1_linear_4725_14932" x1="110.943" y1="7.05278" x2="104.635" y2="17.6513" gradientUnits="userSpaceOnUse">
<stop stop-color="#E12F6A"/>
<stop offset="0.1705" stop-color="#EA3751"/>
<stop offset="0.3563" stop-color="#F13D3E"/>
<stop offset="0.5467" stop-color="#F64133"/>
<stop offset="0.7469" stop-color="#F7422F"/>
<stop offset="0.7946" stop-color="#F74C2F"/>
<stop offset="0.8743" stop-color="#F7652F"/>
<stop offset="0.9757" stop-color="#F78F2E"/>
<stop offset="1" stop-color="#F79A2E"/>
</linearGradient>
<linearGradient id="paint2_linear_4725_14932" x1="113.438" y1="-0.988031" x2="102.814" y2="24.3363" gradientUnits="userSpaceOnUse">
<stop offset="0.2341" stop-color="#9E35A5" stop-opacity="0"/>
<stop offset="0.4512" stop-color="#D42F7F" stop-opacity="0.5"/>
<stop offset="0.7524" stop-color="#F7772E"/>
<stop offset="0.9624" stop-color="#FEF780"/>
</linearGradient>
<linearGradient id="paint3_linear_4725_14932" x1="252" y1="0" x2="252" y2="23.822" gradientUnits="userSpaceOnUse">
<stop stop-color="#2AABEE"/>
<stop offset="1" stop-color="#229ED9"/>
</linearGradient>
<clipPath id="clip0_4725_14932">
<rect width="24" height="24" fill="white" transform="translate(192)"/>
</clipPath>
</defs>
</svg>
